# xmcd
#
# Track frame offsets:
# 150
# 17270
# 29382
# 46559
# 63675
# 78981
# 95952
# 113387
# 131477
# 147678
# 166314
# 186898
# 209433
# 226049
# 240113
# 260677
#
# Disc length: 3686 seconds
#
#
# Revision: 0
# Processed by: cddbd v1.5PL3 Copyright (c) Steve Scherf et al.
# Submitted via: FreeRIP 2.70 
#
DISCID=ce0e6410
DTITLE=Various Artist - Todays Country Greatest Hits V4
DYEAR=2004
DGENRE=Country
TTITLE0=Travis Tritt-If I Lost You
TTITLE1=Alan Jackson-WWW.Memory.Com
TTITLE2=Carolyn Dawn Johnson-I Don't Want To go
TTITLE3=Dixie Chicks-Wide Open Spaces
TTITLE4=George Strait-The Best Day Of My Life
TTITLE5=Jo Dee Messina-Stand Beside Me
TTITLE6=Kenny Rogers-Buy Me Roses
TTITLE7=Kevin Denny- That's Just Jesse
TTITLE8=Tracy Bird-I'm From The Country
TTITLE9=Lonestar-Amazed
TTITLE10=Faith Hill and Tim McGraw-Just to hear you
TTITLE11=Lee Ann Womack-I Hope You Dance
TTITLE12=Terri Clark- Now That I Found You
TTITLE13=Tim McGraw-Something Like That
TTITLE14=Martina McBride-Whatever You Say
TTITLE15=Toby Keith-How Do You Like Me Now
EXTD=
EXTT0=
EXTT1=
EXTT2=
EXTT3=
EXTT4=
EXTT5=
EXTT6=
EXTT7=
EXTT8=
EXTT9=
EXTT10=
EXTT11=
EXTT12=
EXTT13=
EXTT14=
EXTT15=
PLAYORDER=
